<svg width="24" height="25" viewBox="0 0 24 25" fill="none" xmlns="http://www.w3.org/2000/svg">
<path d="M20.3479 8.12634L9.7479 18.7263C9.65402 18.821 9.52622 18.8742 9.3929 18.8742C9.25958 18.8742 9.13178 18.821 9.0379 18.7263L3.6479 13.3363C3.55324 13.2425 3.5 13.1147 3.5 12.9813C3.5 12.848 3.55324 12.7202 3.6479 12.6263L4.3479 11.9263C4.44178 11.8317 4.56958 11.7784 4.7029 11.7784C4.83622 11.7784 4.96402 11.8317 5.0579 11.9263L9.3879 16.2563L18.9379 6.70634C19.1357 6.51455 19.4501 6.51455 19.6479 6.70634L20.3479 7.41634C20.4426 7.51022 20.4958 7.63802 20.4958 7.77134C20.4958 7.90466 20.4426 8.03245 20.3479 8.12634Z" fill="white"/>
</svg>
