<svg width="24" height="25" viewBox="0 0 24 25" fill="none" xmlns="http://www.w3.org/2000/svg">
<path d="M20.3484 8.12634L9.74839 18.7263C9.65451 18.821 9.52671 18.8742 9.39339 18.8742C9.26007 18.8742 9.13227 18.821 9.03839 18.7263L3.64839 13.3363C3.55373 13.2425 3.50049 13.1147 3.50049 12.9813C3.50049 12.848 3.55373 12.7202 3.64839 12.6263L4.34839 11.9263C4.44227 11.8317 4.57007 11.7784 4.70339 11.7784C4.83671 11.7784 4.96451 11.8317 5.05839 11.9263L9.38839 16.2563L18.9384 6.70634C19.1362 6.51455 19.4506 6.51455 19.6484 6.70634L20.3484 7.41634C20.4431 7.51022 20.4963 7.63802 20.4963 7.77134C20.4963 7.90466 20.4431 8.03245 20.3484 8.12634Z" fill="#12B76A"/>
</svg>
