<svg width="91" height="26" viewBox="0 0 91 26" fill="none" xmlns="http://www.w3.org/2000/svg">
<g id="Vector">
<path fill-rule="evenodd" clip-rule="evenodd" d="M8.53578 1.7186C7.26298 1.71955 6.23289 2.76421 6.23384 4.05148C6.23289 5.33875 7.26392 6.38341 8.53672 6.38436H10.8396V4.05244C10.8405 2.76516 9.80951 1.72051 8.53578 1.7186C8.53672 1.7186 8.53672 1.7186 8.53578 1.7186ZM8.53578 7.94089H2.39664C1.12384 7.94184 0.0928119 8.9865 0.0937526 10.2738C0.0918711 11.561 1.1229 12.6057 2.3957 12.6076H8.53578C9.80857 12.6066 10.8396 11.562 10.8387 10.2747C10.8396 8.9865 9.80857 7.94184 8.53578 7.94089Z" fill="#BBBCC3"/>
<path fill-rule="evenodd" clip-rule="evenodd" d="M23.1188 10.2737C23.1197 8.98645 22.0887 7.94179 20.8159 7.94084C19.5431 7.94179 18.5121 8.98645 18.513 10.2737V12.6076H20.8159C22.0887 12.6066 23.1197 11.5619 23.1188 10.2737ZM16.9787 10.2737V4.05144C16.9797 2.76512 15.9496 1.72046 14.6768 1.71856C13.404 1.71951 12.3729 2.76417 12.3739 4.05144V10.2737C12.372 11.561 13.403 12.6057 14.6758 12.6076C15.9486 12.6066 16.9797 11.5619 16.9787 10.2737Z" fill="#BBBCC3"/>
<path fill-rule="evenodd" clip-rule="evenodd" d="M14.6758 25.052C15.9486 25.0511 16.9796 24.0064 16.9787 22.7192C16.9796 21.4319 15.9486 20.3872 14.6758 20.3863H12.3729V22.7192C12.372 24.0055 13.403 25.0501 14.6758 25.052ZM14.6758 18.8288H20.8159C22.0887 18.8279 23.1197 17.7832 23.1188 16.4959C23.1207 15.2086 22.0896 14.164 20.8168 14.1621H14.6767C13.4039 14.163 12.3729 15.2077 12.3739 16.495C12.3729 17.7832 13.403 18.8279 14.6758 18.8288Z" fill="#BBBCC3"/>
<path fill-rule="evenodd" clip-rule="evenodd" d="M0.0939662 16.496C0.0930255 17.7832 1.12406 18.8279 2.39685 18.8288C3.66964 18.8279 4.70067 17.7832 4.69973 16.496V14.1631H2.39685C1.12406 14.164 0.0930255 15.2087 0.0939662 16.496ZM6.23405 16.496V22.7183C6.23217 24.0055 7.2632 25.0502 8.53599 25.0521C9.80879 25.0511 10.8398 24.0065 10.8389 22.7192V16.4979C10.8408 15.2106 9.80973 14.1659 8.53693 14.164C7.2632 14.164 6.23311 15.2087 6.23405 16.496Z" fill="#BBBCC3"/>
<path d="M29.8827 17.6327L32.0653 16.3445C33.0247 17.7705 34.2719 18.4834 35.807 18.4834C36.5585 18.4834 37.1501 18.3376 37.5818 18.0459C38.0295 17.738 38.2534 17.3329 38.2534 16.8306C38.2534 16.4255 38.0695 16.069 37.7018 15.7612C37.35 15.4533 36.9742 15.2264 36.5745 15.0806C36.1747 14.9185 35.5751 14.7079 34.7756 14.4486C34.6317 14.4 34.5278 14.3676 34.4638 14.3514C33.8882 14.157 33.4005 13.9706 33.0007 13.7924C32.617 13.5979 32.2093 13.3468 31.7775 13.0389C31.3458 12.7148 31.018 12.3178 30.7942 11.8479C30.5703 11.3618 30.4584 10.8027 30.4584 10.1708C30.4584 8.93926 30.97 7.95081 31.9934 7.20543C33.0167 6.46004 34.2879 6.08735 35.807 6.08735C36.9422 6.08735 38.0136 6.39523 39.0209 7.01098C40.0283 7.61053 40.7798 8.38022 41.2755 9.32005L39.2608 10.5597C38.3174 9.24713 37.1741 8.59087 35.8309 8.59087C35.0954 8.59087 34.5278 8.74481 34.128 9.05269C33.7443 9.34436 33.5524 9.73326 33.5524 10.2194C33.5524 10.6245 33.7203 10.9891 34.0561 11.3131C34.4079 11.621 34.7676 11.8479 35.1354 11.9937C35.5032 12.1396 36.0228 12.3259 36.6944 12.5528C36.8703 12.6014 36.9982 12.6419 37.0782 12.6743C39.9243 13.5979 41.3474 14.9915 41.3474 16.8549C41.3474 18.0054 40.8677 18.9858 39.9083 19.796C38.9649 20.59 37.6218 20.987 35.8789 20.987C34.5358 20.987 33.3365 20.6872 32.2812 20.0876C31.2419 19.4881 30.4424 18.6698 29.8827 17.6327Z" fill="#BBBCC3"/>
<path d="M43.9857 20.5494V0.691406H47.0078V20.5494H43.9857Z" fill="#BBBCC3"/>
<path d="M52.8121 16.6119C52.8121 17.1304 53.012 17.5679 53.4117 17.9244C53.8275 18.2647 54.3711 18.4348 55.0427 18.4348C56.0021 18.4348 56.8176 18.1107 57.4891 17.4626C58.1767 16.8144 58.5205 15.9637 58.5205 14.9104V13.6222C57.785 13.8005 56.8975 13.9706 55.8582 14.1326C53.8275 14.4567 52.8121 15.2831 52.8121 16.6119ZM49.7421 16.8792C49.7421 14.238 51.6768 12.6257 55.5464 12.0423C56.9535 11.8317 57.9449 11.6372 58.5205 11.459V10.7055C58.5205 10.0249 58.2806 9.49019 57.8009 9.1013C57.3213 8.7124 56.6817 8.51795 55.8822 8.51795C54.3631 8.51795 53.052 9.14991 51.9487 10.4138L50.1018 8.80963C50.8214 7.95081 51.6768 7.28645 52.6682 6.81653C53.6756 6.33041 54.7309 6.08735 55.8342 6.08735C57.8969 6.08735 59.3679 6.59778 60.2474 7.61863C61.1268 8.62328 61.5665 10.033 61.5665 11.8479V20.5494H58.6164V18.7994C58.3286 19.399 57.8249 19.9175 57.1054 20.355C56.4018 20.7763 55.5704 20.987 54.611 20.987C53.0919 20.987 51.9007 20.6062 51.0373 19.8446C50.1738 19.083 49.7421 18.0945 49.7421 16.8792Z" fill="#BBBCC3"/>
<path d="M63.8931 13.5493C63.8931 11.2969 64.4847 9.49019 65.6679 8.12906C66.8672 6.76792 68.4102 6.08735 70.297 6.08735C71.6721 6.08735 72.8314 6.50865 73.7748 7.35126C74.7182 8.19387 75.3098 9.15801 75.5496 10.2437L72.9593 10.9729C72.7674 10.3571 72.4396 9.83048 71.9759 9.39297C71.5122 8.93926 70.9606 8.7124 70.321 8.7124C69.2816 8.7124 68.4661 9.17422 67.8745 10.0978C67.2989 11.0215 67.0111 12.172 67.0111 13.5493C67.0111 15.0725 67.3229 16.2554 67.9465 17.098C68.5701 17.9406 69.3616 18.3619 70.321 18.3619C71.0245 18.3619 71.6401 18.1188 72.1678 17.6327C72.7114 17.1304 73.0872 16.5633 73.2951 15.9313L75.8854 16.6848C75.5816 17.8191 74.918 18.8237 73.8947 19.6987C72.8713 20.5575 71.6721 20.987 70.297 20.987C68.4102 20.987 66.8672 20.3145 65.6679 18.9696C64.4847 17.6084 63.8931 15.8017 63.8931 13.5493Z" fill="#BBBCC3"/>
<path d="M78.164 20.5494V0.691406H81.186V12.1152L86.1029 6.52486H89.9165L84.8077 12.2368L90.2283 20.5494H86.6785L82.841 14.4L81.186 16.2473V20.5494H78.164Z" fill="#BBBCC3"/>
</g>
</svg>
