<svg width="94" height="40" viewBox="0 0 94 40" fill="none" xmlns="http://www.w3.org/2000/svg">
<g id="Company logo" clip-path="url(#clip0_1_5272)">
<path id="Vector" d="M26.3333 25.6224C23.7483 25.6224 22.037 23.6642 21.5597 22.9057C22.1722 18.1073 23.9646 16.5901 26.3333 16.5901C28.6752 16.5901 30.4946 18.4248 30.4946 21.1062C30.4946 23.7877 28.6752 25.6224 26.3333 25.6224ZM26.3333 13.644C22.1182 13.644 19.7583 16.3343 19.0828 19.104C18.3172 17.6927 17.7498 15.8051 17.3085 14.0498H11.4809V21.1504C11.4809 23.726 10.283 25.6312 7.9412 25.6312C5.5994 25.6312 4.25737 23.726 4.25737 21.1504L4.28439 14.0498H0.924805V21.1504C0.924805 23.2232 1.60933 25.102 2.86129 26.4427C4.14929 27.8276 5.90564 28.5508 7.9412 28.5508C11.9943 28.5508 14.8225 25.5078 14.8225 21.1504V16.3784C15.2458 17.9485 16.2546 20.9651 18.1821 23.6114L16.3807 33.658H19.7944L20.9832 26.5397C21.3705 26.8573 21.7848 27.1395 22.2262 27.3954C23.37 28.101 24.676 28.498 26.0271 28.542C26.0271 28.542 26.2342 28.5508 26.3424 28.5508C30.5216 28.5508 33.8451 25.3843 33.8451 21.1062C33.8451 16.8283 30.5126 13.644 26.3333 13.644Z" fill="#BBBCC3"/>
<path id="Vector_2" d="M74.6009 15.569V14.0518H71.3044V28.103H74.646V22.599C74.646 19.2119 74.9612 16.7774 79.5998 17.0949V13.8842C77.4381 13.7255 75.7538 14.1665 74.6009 15.569Z" fill="#BBBCC3"/>
<path id="Vector_3" d="M51.4002 14.0503L48.9773 23.8764L46.3923 14.0503H42.1411L39.5471 23.8764L37.1332 14.0503H33.7466L37.4575 28.1104H41.4746L44.2667 18.1254L47.0318 28.1104H51.0489L54.976 14.0503H51.4002Z" fill="#BBBCC3"/>
<path id="Vector_4" d="M62.335 25.6312C59.9572 25.6312 58.1738 23.7966 58.1738 21.1062C58.1738 18.416 59.9662 16.5901 62.335 16.5901C64.6769 16.5901 66.4963 18.4248 66.4963 21.1062C66.4963 23.7877 64.6769 25.6312 62.335 25.6312ZM62.335 13.644C58.1288 13.644 54.8323 16.8371 54.8323 21.1062C54.8323 25.3754 58.1288 28.542 62.335 28.542C66.5142 28.542 69.8378 25.3754 69.8378 21.1062C69.8378 16.8371 66.5233 13.644 62.335 13.644Z" fill="#BBBCC3"/>
<path id="Vector_5" d="M84.3928 21.1953H85.1675L89.833 28.1106H93.607L88.2388 20.4455C90.8418 19.4488 92.5892 16.8467 92.5892 14.0506H89.2565C89.2565 17.0849 86.8157 18.2316 84.3928 18.2316V8.50244H81.0422V28.1106H84.3838L84.3928 21.1953Z" fill="#BBBCC3"/>
</g>
<defs>
<clipPath id="clip0_1_5272">
<rect width="92.5706" height="38.9771" fill="white" transform="translate(0.924805 0.382812)"/>
</clipPath>
</defs>
</svg>
