<svg width="80" height="40" viewBox="0 0 80 40" fill="none" xmlns="http://www.w3.org/2000/svg">
<g id="Company logo">
<path id="Vector" d="M70.4043 11.2938C65.5317 11.2938 61.5666 15.2806 61.5666 20.1817C61.5666 25.0827 65.5317 29.0695 70.4043 29.0695C75.2758 29.0695 79.2398 25.0827 79.2398 20.1817C79.2398 15.2806 75.2758 11.2938 70.4043 11.2938ZM70.4043 24.8573C67.8417 24.8573 65.7545 22.7575 65.7545 20.1817C65.7545 17.6047 67.8417 15.506 70.4043 15.506C72.9647 15.506 75.0529 17.6047 75.0529 20.1817C75.0529 22.7586 72.9658 24.8573 70.4032 24.8573H70.4043ZM44.3803 18.3817L42.8349 17.6058C42.164 17.2717 41.7433 17.0131 41.5742 16.822C41.4129 16.6526 41.3211 16.4288 41.317 16.1949C41.317 15.8951 41.4519 15.6422 41.717 15.4454C41.9799 15.2394 42.3537 15.1456 42.828 15.1456C43.6956 15.1456 44.6569 15.6697 45.7153 16.7259L48.3236 14.102C47.6827 13.2282 46.8446 12.5185 45.8776 12.0308C44.9233 11.5501 43.8689 11.3023 42.8006 11.3076C41.2084 11.3076 39.8939 11.7779 38.8698 12.7254C37.8468 13.6729 37.3325 14.8114 37.3325 16.1468C37.3325 18.218 38.6869 19.9436 41.405 21.3134L42.828 22.0286C44.0545 22.6499 44.6649 23.2827 44.6649 23.9373C44.6649 24.292 44.4946 24.5987 44.1562 24.871C43.8179 25.1445 43.3698 25.2738 42.8143 25.2738C42.3 25.2738 41.7102 25.0964 41.0461 24.736C40.3844 24.3813 39.7957 23.9045 39.311 23.3308L36.7164 26.1732C38.1794 28.0957 40.1305 29.0637 42.5834 29.0637C44.4271 29.0637 45.8982 28.5591 46.9886 27.5567C48.0859 26.5554 48.6345 25.3013 48.6345 23.8011C48.6345 22.6762 48.3305 21.6887 47.727 20.8499C47.1178 20.0112 45.9999 19.1941 44.3803 18.3828V18.3817ZM18.1413 27.1333V11.6474H13.9465V12.6842C12.533 11.7746 10.8878 11.292 9.20754 11.2938C4.33603 11.2938 0.37207 15.2806 0.37207 20.1817C0.37207 25.0827 4.33603 29.0695 9.20868 29.0695C10.8688 29.072 12.4953 28.6017 13.8985 27.7135C13.8985 27.8496 13.8916 27.9721 13.8916 28.0545C13.8916 30.6303 11.8045 32.7301 9.24297 32.7301C8.37202 32.7281 7.51935 32.4798 6.78322 32.0138L4.70865 35.6675C6.07662 36.5029 7.64745 36.9462 9.24983 36.9491C14.1225 36.9491 18.1413 32.9612 18.1413 28.0602C18.1413 27.8702 18.1539 27.3107 18.1413 27.1333ZM9.20868 24.8561C6.64834 24.8561 4.56006 22.7575 4.56006 20.1817C4.56006 17.6047 6.6472 15.506 9.20868 15.506C11.7702 15.506 13.8573 17.6047 13.8573 20.1817C13.8573 22.7575 11.7702 24.8573 9.20868 24.8573V24.8561ZM34.851 11.6417H30.6356V20.0913C30.6424 21.2916 30.6424 23.364 29.7623 24.2497C29.3417 24.6719 28.881 25.0541 27.9118 25.0541C26.9356 25.0541 26.475 24.6719 26.0555 24.2497C25.1743 23.3628 25.1811 21.2848 25.1868 20.0913V11.6417H20.9725V20.0661C20.9588 21.8031 20.9383 25.0278 23.0528 27.1676C24.293 28.4218 25.7709 29.0626 27.9049 29.0626C30.04 29.0626 31.5168 28.4287 32.757 27.1676C34.8716 25.0278 34.851 21.7963 34.8373 20.0661L34.851 11.6406V11.6417ZM58.7388 24.1009C58.4004 24.3595 57.5797 24.9328 56.6516 24.8035C55.8927 24.7005 55.2766 24.1421 55.1817 22.2746V15.268H60.1355V11.628H55.1817V6.9043H50.98V7.83118H50.9731V21.723C50.9731 23.9315 51.5286 29.0626 56.6448 29.0626C59.2337 29.0225 60.8053 27.6116 61.4637 27.0601L61.5517 26.9914L59.0302 23.8697C59.0234 23.8755 58.8473 24.0185 58.7388 24.1009Z" fill="#BBBCC3"/>
</g>
</svg>
