<svg width="86" height="40" viewBox="0 0 86 40" fill="none" xmlns="http://www.w3.org/2000/svg">
<g id="Company logo" clip-path="url(#clip0_1_5265)">
<g id="Vector">
<path d="M6.64407 25.211H0.932995V28.0666H6.64407V25.211Z" fill="#BBBCC3"/>
<path d="M15.2081 25.211H9.50064V28.0666H15.2081V25.211Z" fill="#BBBCC3"/>
<path d="M15.2096 19.5H0.929688V22.3556H15.2096V19.5Z" fill="#BBBCC3"/>
<path d="M9.50042 13.7894H0.932998V16.6448H9.50042V13.7894Z" fill="#BBBCC3"/>
<path d="M15.2111 13.7894H12.3556V16.6448H15.2111V13.7894Z" fill="#BBBCC3"/>
<path d="M56.6656 13.7731C52.0795 13.7731 49.711 17.0162 49.711 21.0168C49.711 25.0176 52.0211 28.2611 56.6656 28.2611C61.31 28.2611 63.6202 25.0176 63.6202 21.0168C63.6204 17.0162 61.2515 13.7731 56.6656 13.7731ZM60.1351 21.0298C60.1319 23.6024 59.265 25.6861 56.6656 25.6861C54.0661 25.6861 53.1991 23.6026 53.1964 21.0298V21.017C53.1991 18.4446 54.0663 16.361 56.6658 16.361C59.265 16.361 60.1319 18.4446 60.1351 21.017V21.0235C60.1351 21.0256 60.1351 21.0276 60.1351 21.0298Z" fill="#BBBCC3"/>
<path d="M36.1312 28.0663V8.0384C36.1312 8.0384 38.7728 7.66317 38.9776 7.6356C39.2097 7.60426 39.5177 7.76945 39.5177 8.09605V15.5205C40.0659 14.9993 40.6695 14.5792 41.3274 14.2591C41.9858 13.9393 42.7579 13.7792 43.645 13.7792C44.4129 13.7792 45.0933 13.9094 45.6874 14.1701C46.2819 14.4302 46.7778 14.7963 47.1754 15.2666C47.573 15.7377 47.8747 16.2998 48.0804 16.9533C48.286 17.6069 48.3888 18.3267 48.3888 19.1129V28.0662H45.0022V19.1129C45.0022 18.2538 44.8033 17.5887 44.4057 17.1176C44.0079 16.6471 43.4115 16.4116 42.616 16.4116C42.0311 16.4116 41.4829 16.5442 40.9713 16.8096C40.4591 17.0747 39.9747 17.4354 39.5177 17.8928V28.0663H36.1312Z" fill="#BBBCC3"/>
<path d="M81.3437 28.2592C79.0132 28.2592 77.5526 26.9029 77.5526 24.3726V16.8736H74.9261C74.9261 16.8736 75.4844 14.9429 75.5285 14.7908C75.5728 14.639 75.6883 14.4758 75.9201 14.4435C76.152 14.4113 77.5493 14.2164 77.5493 14.2164L78.1948 10.1102C78.1948 10.1102 80.0911 9.84284 80.3918 9.79798C80.6757 9.75547 80.9331 9.95993 80.9331 10.2692V14.2164H84.255V16.8736H80.9331V24.2716C80.9331 25.2816 81.5481 25.6677 82.1376 25.6677C82.4979 25.6677 82.9913 25.4764 83.3595 25.3056C83.587 25.2004 83.9395 25.2784 84.0307 25.596C84.1112 25.8774 84.5394 27.3709 84.5394 27.3709C84.1699 27.6094 83.0021 28.2592 81.3437 28.2592Z" fill="#BBBCC3"/>
<path d="M73.0658 16.9184C72.4058 16.704 71.1652 16.3609 69.985 16.3609C68.7826 16.3609 67.8365 16.7763 67.8365 17.7761C67.8365 19.0248 69.8755 19.3884 71.2713 19.8974C72.2044 20.2377 74.7068 20.9012 74.7068 23.5925C74.7068 26.8618 71.9918 28.2595 69.0957 28.2595C66.1992 28.2595 64.488 27.1822 64.488 27.1822C64.488 27.1822 64.9373 25.5952 65.0282 25.2819C65.1106 25 65.4382 24.9011 65.647 24.9812C66.3925 25.2686 67.7385 25.668 69.26 25.668C70.8004 25.668 71.5456 25.1976 71.5456 24.1949C71.5456 22.8604 69.4655 22.4526 68.0898 22.0186C67.142 21.7199 64.6335 21.0233 64.6335 18.0634C64.6335 15.1476 67.1939 13.7796 69.9303 13.7796C72.2466 13.7796 73.3827 14.264 74.2314 14.6964C74.2314 14.6964 73.7585 16.3445 73.6882 16.59C73.6054 16.8818 73.366 17.0157 73.0658 16.9184Z" fill="#BBBCC3"/>
<path d="M34.8097 14.2623C34.8097 13.9469 34.5402 13.7664 34.2832 13.7957C33.1467 13.926 32.3358 14.4608 31.8113 14.9587C30.7812 14.1517 29.3514 13.7664 27.7467 13.7664C24.5293 13.7664 22.0156 15.3192 22.0156 18.7052C22.0156 20.6489 22.843 21.9883 24.157 22.7768C23.1811 23.2387 22.5312 24.2188 22.5312 25.1824C22.5312 26.7943 23.8046 27.2991 23.8046 27.2991C23.8046 27.2991 21.5781 28.3797 21.5781 30.5418C21.5781 33.3095 24.1251 34.4286 27.2374 34.4286C31.7237 34.4286 34.8103 32.5756 34.8103 29.1733C34.8103 27.0793 33.2079 25.9233 29.716 25.7859C27.6438 25.7041 26.3016 25.6295 25.969 25.5194C25.5297 25.3735 25.3137 25.0217 25.3137 24.6333C25.3137 24.2046 25.6659 23.7964 26.2211 23.5161C26.7053 23.6018 27.2163 23.6442 27.747 23.6442C30.9671 23.6442 33.4783 22.0958 33.4783 18.7054C33.4783 17.8832 33.3299 17.1695 33.06 16.5597C33.5331 16.3073 34.1151 16.1297 34.8101 16.1297C34.8101 16.1297 34.8097 14.55 34.8097 14.2623ZM25.9433 28.0841C25.9433 28.0841 27.6328 28.1481 29.3211 28.2263C31.2179 28.314 31.8089 28.7227 31.8089 29.7049C31.8089 30.9048 30.1606 32.072 27.8571 32.072C25.6705 32.072 24.5783 31.3112 24.5783 30.0446C24.5783 29.3179 24.962 28.5049 25.9433 28.0841ZM27.7528 21.2807C26.2286 21.2807 25.0395 20.4711 25.0395 18.7052C25.0395 16.9391 26.2297 16.1295 27.7528 16.1295C29.2761 16.1295 30.4661 16.9369 30.4661 18.7052C30.4661 20.4735 29.2775 21.2807 27.7528 21.2807Z" fill="#BBBCC3"/>
</g>
</g>
<defs>
<clipPath id="clip0_1_5265">
<rect width="84.4504" height="38.9771" fill="white" transform="translate(0.885742 0.136719)"/>
</clipPath>
</defs>
</svg>
