<svg width="137" height="40" viewBox="0 0 137 40" fill="none" xmlns="http://www.w3.org/2000/svg">
<g id="Company logo" clip-path="url(#clip0_1_5262)">
<path id="Vector" d="M117.303 18.7691C119.025 18.7691 119.689 19.8228 119.781 20.7402C119.783 20.7541 119.781 20.768 119.777 20.7812C119.772 20.7944 119.765 20.8065 119.756 20.8168C119.746 20.827 119.735 20.8352 119.722 20.8408C119.709 20.8464 119.696 20.8492 119.682 20.8492H114.953C114.939 20.8492 114.925 20.8461 114.912 20.8403C114.899 20.8345 114.887 20.826 114.878 20.8154C114.869 20.8048 114.862 20.7924 114.858 20.7789C114.853 20.7654 114.852 20.7511 114.854 20.7371C114.982 19.8407 115.776 18.7691 117.303 18.7691ZM119.895 24.6022C119.863 24.6021 119.832 24.6094 119.804 24.6236C119.776 24.6378 119.752 24.6585 119.734 24.6839C119.307 25.2847 118.613 25.6551 117.577 25.6551C116.149 25.6551 114.909 24.7166 114.775 23.3867C114.774 23.373 114.776 23.3591 114.78 23.3459C114.784 23.3328 114.791 23.3207 114.801 23.3105C114.81 23.3002 114.821 23.292 114.834 23.2864C114.847 23.2808 114.86 23.2778 114.874 23.2778H123.371C123.395 23.2031 123.445 22.6335 123.445 22.1129C123.445 18.1505 121.082 15.7973 117.253 15.7973C114.045 15.7973 111.086 18.3232 111.086 22.2864C111.086 26.4231 114.12 28.8502 117.527 28.8502C120.606 28.8502 122.557 27.1274 123.19 25.045C123.193 25.0326 123.214 24.9547 123.238 24.8411C123.244 24.8122 123.243 24.7824 123.236 24.7537C123.229 24.725 123.216 24.6983 123.197 24.6754C123.179 24.6525 123.155 24.634 123.129 24.6214C123.102 24.6087 123.073 24.6022 123.043 24.6022H119.895ZM127.408 22.2234L123.379 16.4805C123.359 16.4508 123.346 16.4158 123.344 16.3795C123.342 16.3433 123.349 16.3071 123.366 16.2749C123.383 16.2427 123.409 16.2157 123.44 16.197C123.471 16.1782 123.507 16.1684 123.543 16.1685H127.504C127.571 16.1685 127.634 16.202 127.671 16.258L129.741 19.4096C129.78 19.4695 129.869 19.4687 129.907 19.408L131.93 16.2603C131.948 16.2322 131.973 16.209 132.002 16.193C132.031 16.1769 132.064 16.1685 132.097 16.1685H135.831C135.993 16.1685 136.087 16.3498 135.994 16.4813L132.019 22.0732C131.996 22.1065 131.983 22.1463 131.983 22.1871C131.983 22.2279 131.995 22.2678 132.019 22.3012C133.32 24.1532 134.807 26.2932 136.141 28.1662C136.235 28.2977 136.141 28.4783 135.979 28.4783H132.046C132.013 28.4784 131.98 28.4704 131.951 28.4549C131.922 28.4394 131.898 28.4169 131.879 28.3895L129.733 25.1353C129.724 25.1216 129.712 25.1104 129.697 25.1027C129.683 25.095 129.667 25.0909 129.65 25.0909C129.634 25.0909 129.618 25.095 129.603 25.1027C129.589 25.1104 129.576 25.1216 129.567 25.1353C128.925 26.0909 128.084 27.4215 127.447 28.3895C127.429 28.417 127.404 28.4395 127.375 28.455C127.346 28.4705 127.313 28.4785 127.28 28.4783H123.614C123.577 28.4785 123.542 28.4687 123.511 28.4501C123.48 28.4315 123.454 28.4047 123.438 28.3727C123.421 28.3406 123.413 28.3046 123.415 28.2685C123.417 28.2323 123.43 28.1975 123.45 28.1678L127.409 22.4491C127.432 22.4159 127.444 22.3766 127.444 22.3362C127.444 22.2959 127.432 22.2565 127.409 22.2234H127.408ZM106.063 28.2806V10.7447C106.063 10.635 106.152 10.5463 106.262 10.5463H109.644C109.754 10.5463 109.843 10.635 109.843 10.7447V28.2806C109.843 28.3895 109.754 28.4783 109.644 28.4783H106.262C106.236 28.4784 106.21 28.4733 106.186 28.4635C106.162 28.4536 106.14 28.439 106.122 28.4207C106.103 28.4023 106.088 28.3805 106.078 28.3565C106.068 28.3324 106.063 28.3067 106.063 28.2806ZM100.493 28.2806V10.7447C100.493 10.635 100.582 10.5463 100.692 10.5463H104.074C104.184 10.5463 104.272 10.635 104.272 10.7447V28.2806C104.272 28.3895 104.184 28.4783 104.074 28.4783H100.692C100.666 28.4784 100.64 28.4733 100.616 28.4635C100.592 28.4536 100.57 28.439 100.552 28.4207C100.533 28.4023 100.518 28.3805 100.508 28.3565C100.498 28.3324 100.493 28.3067 100.493 28.2806ZM92.1292 25.5804C93.6466 25.5804 94.9392 24.3921 94.9392 22.3113C94.9392 20.1815 93.6708 19.0664 92.1292 19.0664C90.513 19.0664 89.2944 20.1815 89.2944 22.3113C89.2944 24.3423 90.5628 25.5812 92.1292 25.5812V25.5804ZM94.9641 26.8931C94.417 28.0822 93.1743 28.8253 91.632 28.8253C88.0011 28.8253 85.4899 26.0761 85.4899 22.2864C85.4899 18.6213 87.8524 15.7965 91.5075 15.7965C93.7206 15.7965 94.6902 17.0105 94.9392 17.5801V16.3662C94.9392 16.2572 95.0279 16.1685 95.1384 16.1685H98.3958C98.5047 16.1685 98.5942 16.2572 98.5942 16.3669V28.2806C98.5942 28.3895 98.5055 28.4783 98.3958 28.4783H95.1407C95.1145 28.4783 95.0885 28.4731 95.0642 28.4629C95.04 28.4528 95.018 28.438 94.9996 28.4193C94.9811 28.4006 94.9665 28.3785 94.9567 28.3541C94.9469 28.3298 94.942 28.3037 94.9423 28.2775C94.9485 27.83 94.9641 26.7959 94.9641 26.8931ZM77.4243 16.3047L79.6895 23.1665C79.7206 23.2599 79.8529 23.2568 79.8794 23.1626L81.8147 16.3132C81.8264 16.2715 81.8515 16.2348 81.886 16.2087C81.9206 16.1825 81.9628 16.1684 82.0061 16.1685H85.2899C85.4246 16.1685 85.5203 16.2977 85.4806 16.4253L81.7742 28.339C81.7617 28.3796 81.7365 28.4151 81.7024 28.4403C81.6682 28.4655 81.6268 28.4791 81.5843 28.479H78.1192C78.0776 28.479 78.0371 28.4659 78.0033 28.4416C77.9695 28.4173 77.9442 28.383 77.9309 28.3436L75.3863 20.8095C75.3551 20.7192 75.2267 20.72 75.1972 20.8095L72.6993 28.3421C72.6862 28.3817 72.6609 28.4162 72.6271 28.4406C72.5933 28.4651 72.5527 28.4782 72.511 28.4783H68.9711C68.9289 28.4783 68.8877 28.4649 68.8536 28.44C68.8194 28.4151 68.7941 28.38 68.7812 28.3397L65.0266 16.4261C65.0173 16.3963 65.0152 16.3648 65.0203 16.3341C65.0255 16.3034 65.0378 16.2743 65.0563 16.2492C65.0748 16.2241 65.0989 16.2037 65.1267 16.1897C65.1546 16.1757 65.1853 16.1684 65.2165 16.1685H68.7244C68.8131 16.1685 68.8917 16.2276 68.9158 16.3132L70.8511 23.1408C70.8776 23.2342 71.0099 23.2373 71.041 23.1447L73.3304 16.3047C73.3436 16.265 73.369 16.2305 73.4029 16.2061C73.4369 16.1816 73.4776 16.1685 73.5195 16.1685H77.2352C77.3208 16.1685 77.3978 16.223 77.4243 16.3047ZM64.001 19.6407C64.001 19.6696 63.9946 19.6982 63.9824 19.7244C63.9701 19.7507 63.9523 19.7739 63.9301 19.7925C63.908 19.8111 63.882 19.8247 63.854 19.8322C63.8261 19.8397 63.7968 19.841 63.7683 19.836C63.4508 19.7823 63.1292 19.7568 62.8073 19.7597C61.2899 19.7597 59.9226 20.6515 59.9226 23.1035V28.2806C59.9226 28.3895 59.8339 28.4783 59.7242 28.4783H56.3423C56.3162 28.4784 56.2904 28.4733 56.2663 28.4635C56.2422 28.4536 56.2203 28.439 56.2018 28.4207C56.1833 28.4023 56.1686 28.3805 56.1585 28.3565C56.1484 28.3324 56.1432 28.3067 56.1431 28.2806V16.3669C56.1431 16.258 56.2318 16.1685 56.3423 16.1685H59.5997C59.7094 16.1685 59.7981 16.2572 59.7981 16.3669V17.8283C60.4448 16.4409 62.012 16.0448 63.0065 16.0448C63.3084 16.0448 63.6103 16.0775 63.8461 16.1288C63.9372 16.1491 64.001 16.23 64.001 16.3226V19.6407ZM50.4983 28.2806V16.3669C50.4983 16.258 50.5878 16.1685 50.6975 16.1685H54.0794C54.1891 16.1685 54.2786 16.2572 54.2786 16.3669V28.2806C54.2786 28.3895 54.1891 28.4783 54.0794 28.4783H50.6975C50.6715 28.4784 50.6456 28.4733 50.6215 28.4635C50.5974 28.4536 50.5755 28.439 50.557 28.4207C50.5385 28.4023 50.5238 28.3805 50.5137 28.3565C50.5036 28.3324 50.4984 28.3067 50.4983 28.2806ZM52.3636 10.1992C53.6071 10.1992 54.6016 11.1898 54.6016 12.4038C54.6016 13.6177 53.6071 14.6083 52.3636 14.6083C51.1699 14.6083 50.1754 13.6177 50.1754 12.4038C50.1754 11.1898 51.1699 10.1992 52.3636 10.1992ZM38.4547 21.3448H42.4513C42.5198 21.3448 42.568 21.2779 42.5447 21.2133L40.5713 15.5436C40.5646 15.524 40.552 15.507 40.5351 15.4949C40.5183 15.4828 40.4981 15.4762 40.4774 15.4761C40.4567 15.476 40.4364 15.4824 40.4195 15.4944C40.4026 15.5064 40.3898 15.5233 40.383 15.5429L38.3621 21.2133C38.3387 21.2771 38.387 21.3456 38.4555 21.3456L38.4547 21.3448ZM43.694 24.9119H37.1614C37.1204 24.912 37.0804 24.9248 37.047 24.9484C37.0136 24.9721 36.9883 25.0056 36.9746 25.0442L35.7996 28.3468C35.7859 28.3855 35.7605 28.4191 35.7269 28.4428C35.6933 28.4665 35.6532 28.4791 35.612 28.479H31.9127C31.8805 28.4792 31.8487 28.4716 31.8202 28.4567C31.7916 28.4419 31.7671 28.4204 31.7487 28.3939C31.7303 28.3675 31.7186 28.337 31.7146 28.3051C31.7107 28.2731 31.7145 28.2407 31.7259 28.2106L38.2158 11.0459C38.23 11.0081 38.2555 10.9755 38.2887 10.9526C38.3219 10.9297 38.3614 10.9174 38.4018 10.9175H42.677C42.7595 10.9175 42.8342 10.9688 42.863 11.0466L49.2797 28.2114C49.2907 28.2414 49.2944 28.2736 49.2902 28.3054C49.2861 28.3371 49.2744 28.3674 49.256 28.3936C49.2377 28.4198 49.2133 28.4412 49.1849 28.4559C49.1565 28.4707 49.1249 28.4783 49.0929 28.4783H45.2434C45.2023 28.4782 45.1622 28.4655 45.1286 28.4418C45.0951 28.4182 45.0696 28.3847 45.0558 28.346L43.8808 25.0442C43.867 25.0057 43.8417 24.9723 43.8083 24.9486C43.7749 24.9249 43.735 24.9121 43.694 24.9119Z" fill="#BBBCC3"/>
<path id="Vector_2" fill-rule="evenodd" clip-rule="evenodd" d="M26.9356 17.5055C27.4196 17.9767 27.7553 18.579 27.9015 19.2385C28.0476 19.898 27.9978 20.5858 27.7581 21.2174L25.9317 26.1789C25.4524 27.4816 24.3598 28.4893 23.0097 28.7523C22.3344 28.8875 21.635 28.8365 20.9864 28.6049C20.3378 28.3732 19.7644 27.9696 19.3275 27.4372L8.37561 14.3158C8.34838 14.2835 8.31315 14.259 8.27344 14.2446C8.23373 14.2302 8.19094 14.2264 8.14934 14.2338C8.10774 14.2411 8.0688 14.2592 8.0364 14.2863C8.00401 14.3134 7.97929 14.3485 7.96474 14.3882L4.40153 24.0257C4.3276 24.225 4.5237 24.4179 4.71824 24.3386L9.09074 22.5527C9.33725 22.4527 9.60174 22.4048 9.86764 22.4119C10.1335 22.419 10.3951 22.481 10.6359 22.594C10.8767 22.7069 11.0916 22.8684 11.2671 23.0683C11.4425 23.2683 11.5748 23.5023 11.6556 23.7557C11.9785 24.7463 11.4353 25.8163 10.479 26.2069L4.76727 28.5391C3.70974 28.971 2.49503 28.8947 1.54256 28.2589C0.893479 27.8252 0.409562 27.1853 0.168966 26.4426C-0.0716301 25.6999 -0.054859 24.8978 0.216571 24.1658L4.42643 12.7829C4.92523 11.4335 6.06135 10.481 7.46593 10.2351C8.14994 10.1126 8.85426 10.1745 9.50639 10.4145C10.1585 10.6546 10.7349 11.064 11.1762 11.6008L17.4622 19.1334L23.244 16.7717C24.5287 16.2472 25.9434 16.5281 26.9356 17.5055ZM23.6011 21.2889C23.6743 21.0897 23.4782 20.8968 23.2836 20.9769L20.0893 22.2811L22.0051 24.5775C22.0323 24.6101 22.0676 24.6351 22.1075 24.6497C22.1474 24.6644 22.1905 24.6682 22.2323 24.6609C22.2742 24.6535 22.3134 24.6352 22.3459 24.6079C22.3784 24.5805 22.4031 24.5451 22.4176 24.5051L23.6004 21.2889H23.6011Z" fill="#BBBCC3"/>
</g>
<defs>
<clipPath id="clip0_1_5262">
<rect width="136.42" height="38.9771" fill="white" transform="translate(0 0.429688)"/>
</clipPath>
</defs>
</svg>
