<svg width="94" height="40" viewBox="0 0 94 40" fill="none" xmlns="http://www.w3.org/2000/svg">
<g id="Company logo">
<g id="Vector">
<path d="M10.9201 11.0498V18.4293H4.14286V11.0498H0.925293V28.6653H4.14286V21.5254H10.9201V28.6653H14.1377V11.0498H10.9201Z" fill="#BBBCC3"/>
<path d="M24.4351 22.9707C24.4351 23.6766 24.1547 24.3537 23.6555 24.8529C23.1563 25.3521 22.4792 25.6325 21.7733 25.6325C21.0673 25.6325 20.3903 25.3521 19.8911 24.8529C19.3919 24.3537 19.1114 23.6766 19.1114 22.9707V15.4257H16.0594V22.9707C16.0594 24.4846 16.6608 25.9366 17.7313 27.0071C18.8019 28.0776 20.2538 28.6791 21.7678 28.6791C23.2817 28.6791 24.7337 28.0776 25.8042 27.0071C26.8747 25.9366 27.4762 24.4846 27.4762 22.9707V15.4257H24.4351V22.9707Z" fill="#BBBCC3"/>
<path d="M47.0487 16.2033C47.0487 14.6568 48.0719 14.1665 49.1927 14.1665C50.096 14.1665 51.2894 14.8538 52.0698 15.6878L54.0687 13.3325C53.0708 11.9831 51.0467 11.0498 49.3898 11.0498C46.0792 11.0498 43.6845 12.9889 43.6845 16.2033C43.6845 22.1671 50.9741 20.2753 50.9741 23.6127C50.9741 24.6421 49.9747 25.5517 48.8301 25.5517C47.0251 25.5517 46.4402 24.6689 45.611 23.7357L43.3929 26.042C44.8117 27.784 46.5616 28.6684 48.6583 28.6684C51.8034 28.6684 54.3336 26.7057 54.3336 23.6379C54.3336 17.0168 47.044 19.074 47.044 16.2033" fill="#BBBCC3"/>
<path d="M92.1453 25.8511C90.3418 25.8511 89.8294 25.0707 89.8294 23.8758V18.5867H92.6324V15.9067H89.8294V12.3707L86.7348 13.7596V24.5331C86.7348 27.2888 88.636 28.6777 91.2435 28.6777C91.6525 28.6851 92.0612 28.6524 92.4637 28.5799L93.2188 25.8006C92.8783 25.8243 92.4874 25.8479 92.1453 25.8479" fill="#BBBCC3"/>
<path d="M36.0529 15.5147C34.5411 15.5147 33.4864 15.9529 32.4664 16.954V11.1557H29.4097V21.9025C29.4097 25.9257 32.3182 28.6813 35.5863 28.6813C39.2121 28.6813 42.4013 25.8768 42.4013 22.0996C42.4013 18.3696 39.4659 15.5162 36.0529 15.5162V15.5147ZM36.034 25.6056C35.348 25.6056 34.6775 25.4022 34.1071 25.0211C33.5368 24.64 33.0923 24.0984 32.8297 23.4646C32.5672 22.8309 32.4986 22.1336 32.6324 21.4608C32.7662 20.788 33.0965 20.17 33.5816 19.685C34.0666 19.2 34.6846 18.8696 35.3574 18.7358C36.0301 18.602 36.7275 18.6707 37.3612 18.9332C37.9949 19.1957 38.5366 19.6402 38.9177 20.2106C39.2988 20.7809 39.5022 21.4514 39.5022 22.1374C39.5022 23.0572 39.1368 23.9394 38.4864 24.5898C37.836 25.2402 36.9538 25.6056 36.034 25.6056Z" fill="#BBBCC3"/>
<path d="M69.2437 21.9381C69.2437 18.1546 66.0608 15.3563 62.4286 15.3563C59.1606 15.3563 56.252 18.112 56.252 22.1351V32.8882H59.3088V27.0821C60.3272 28.0816 61.3834 28.5214 62.8937 28.5214C66.3067 28.5214 69.2421 25.6696 69.2421 21.9381H69.2437ZM66.3493 21.9002C66.3493 22.5862 66.1459 23.2567 65.7648 23.8271C65.3837 24.3974 64.842 24.842 64.2083 25.1045C63.5746 25.367 62.8772 25.4357 62.2045 25.3018C61.5317 25.168 60.9137 24.8377 60.4287 24.3527C59.9436 23.8676 59.6133 23.2496 59.4795 22.5769C59.3457 21.9041 59.4144 21.2067 59.6769 20.573C59.9394 19.9393 60.3839 19.3976 60.9542 19.0165C61.5246 18.6354 62.1951 18.432 62.8811 18.432C63.8009 18.432 64.6831 18.7974 65.3335 19.4478C65.9839 20.0983 66.3493 20.9804 66.3493 21.9002Z" fill="#BBBCC3"/>
</g>
<path id="Vector_2" d="M79.0882 15.3084V12.269C79.4899 12.0814 79.83 11.7835 80.0689 11.4101C80.3078 11.0367 80.4357 10.603 80.4376 10.1597V10.0888C80.436 9.46922 80.1891 8.87554 79.751 8.43745C79.313 7.99937 78.7193 7.75252 78.0997 7.75086H78.0288C77.4093 7.75252 76.8156 7.99937 76.3775 8.43745C75.9394 8.87554 75.6926 9.46922 75.6909 10.0888V10.1597C75.6929 10.603 75.8207 11.0367 76.0597 11.4101C76.2986 11.7835 76.6387 12.0814 77.0404 12.269V15.3084C75.8855 15.485 74.7978 15.9636 73.8874 16.6957L65.5416 10.2023C65.601 9.98806 65.6328 9.76714 65.6362 9.54488C65.6368 9.02325 65.4827 8.51314 65.1935 8.07907C64.9042 7.645 64.4927 7.30647 64.011 7.10627C63.5293 6.90607 62.999 6.85321 62.4873 6.95436C61.9756 7.05552 61.5053 7.30615 61.136 7.67456C60.7668 8.04297 60.515 8.51261 60.4126 9.0241C60.3102 9.53559 60.3618 10.0659 60.5609 10.5481C60.7599 11.0303 61.0975 11.4426 61.5309 11.7329C61.9642 12.0232 62.474 12.1785 62.9956 12.1792C63.4538 12.1775 63.9034 12.0551 64.2993 11.8245L72.5049 18.2123C71.7658 19.3273 71.3802 20.6394 71.3985 21.977C71.4167 23.3146 71.838 24.6156 72.6073 25.71L70.1102 28.2071C69.9097 28.1433 69.701 28.1093 69.4906 28.1062C69.0619 28.1062 68.6428 28.2333 68.2864 28.4715C67.9299 28.7097 67.6521 29.0483 67.488 29.4443C67.3239 29.8404 67.281 30.2763 67.3647 30.6967C67.4483 31.1172 67.6547 31.5035 67.9579 31.8066C68.261 32.1098 68.6473 32.3162 69.0678 32.3999C69.4882 32.4835 69.9241 32.4406 70.3202 32.2765C70.7163 32.1124 71.0548 31.8346 71.293 31.4781C71.5312 31.1217 71.6583 30.7026 71.6583 30.2739C71.6554 30.0635 71.6214 29.8547 71.5574 29.6543L74.0277 27.184C74.8341 27.7999 75.7706 28.2235 76.7656 28.4223C77.7607 28.6211 78.788 28.59 79.7692 28.3313C80.7503 28.0725 81.6594 27.593 82.427 26.9293C83.1946 26.2657 83.8004 25.4354 84.1982 24.5019C84.596 23.5684 84.7752 22.5564 84.7222 21.543C84.6693 20.5297 84.3854 19.5419 83.8925 18.655C83.3995 17.768 82.7104 17.0055 81.8778 16.4255C81.0451 15.8455 80.091 15.4634 79.0882 15.3084ZM78.0651 25.3064C77.3891 25.3064 76.7283 25.106 76.1662 24.7304C75.6042 24.3549 75.1661 23.8211 74.9074 23.1966C74.6488 22.572 74.5811 21.8848 74.7129 21.2218C74.8448 20.5589 75.1703 19.9499 75.6483 19.4719C76.1263 18.9939 76.7353 18.6684 77.3983 18.5365C78.0613 18.4046 78.7485 18.4723 79.373 18.731C79.9975 18.9897 80.5313 19.4278 80.9068 19.9898C81.2824 20.5519 81.4828 21.2127 81.4828 21.8886C81.4828 22.7951 81.1227 23.6644 80.4818 24.3054C79.8408 24.9463 78.9715 25.3064 78.0651 25.3064Z" fill="#BBBCC3"/>
</g>
</svg>
