<svg width="40" height="41" viewBox="0 0 40 41" fill="none" xmlns="http://www.w3.org/2000/svg">
<g clip-path="url(#clip0_1_1561)">
<path d="M27.9422 20.4974H20.8594V15.0682H24.7653C25.2399 15.0682 25.6247 14.6834 25.6247 14.2088V9.44348C25.6247 8.96887 25.2399 8.58411 24.7652 8.58411C22.759 8.58411 20.9958 9.64075 20 11.2259C19.0041 9.64075 17.241 8.58411 15.2347 8.58411C14.7601 8.58411 14.3752 8.96887 14.3752 9.44348V14.2088C14.3752 14.4367 14.4658 14.6553 14.627 14.8164C14.7881 14.9776 15.0067 15.0682 15.2346 15.0682H19.1406V20.4974H12.0577C11.5831 20.4974 11.1984 20.8822 11.1984 21.3568C11.1984 21.8314 11.5831 22.2161 12.0577 22.2161H19.1406V28.5047C19.1406 28.9793 19.5254 29.3641 20 29.3641C20.4746 29.3641 20.8594 28.9793 20.8594 28.5047V22.2161H27.9422C28.4168 22.2161 28.8016 21.8314 28.8016 21.3568C28.8016 20.8822 28.4168 20.4974 27.9422 20.4974ZM23.9059 10.3982V13.3495H20.9546C21.2848 11.8842 22.4407 10.7283 23.9059 10.3982ZM16.0941 13.3494L16.0941 10.3981C17.5593 10.7282 18.7152 11.8842 19.0454 13.3494H16.0941Z" fill="#4ABB82"/>
<path d="M27.9422 29.3641H12.0578C11.5832 29.3641 11.1984 28.9793 11.1984 28.5047V14.2087C11.1984 13.7341 11.5832 13.3494 12.0578 13.3494H27.9422C28.4168 13.3494 28.8016 13.7341 28.8016 14.2087V28.5047C28.8016 28.9793 28.4168 29.3641 27.9422 29.3641ZM12.9172 27.6453H27.0828V15.0681H12.9172V27.6453Z" fill="#1D1D35"/>
<path d="M39.1406 21.4219H35.9637C35.4891 21.4219 35.1044 21.0371 35.1044 20.5625C35.1044 20.0879 35.4891 19.7031 35.9637 19.7031H39.1406C39.6152 19.7031 40 20.0879 40 20.5625C40 21.0371 39.6152 21.4219 39.1406 21.4219Z" fill="#4ABB82"/>
<path d="M4.03625 21.4219H0.859375C0.384766 21.4219 0 21.0371 0 20.5625C0 20.0879 0.384766 19.7031 0.859375 19.7031H4.03625C4.51086 19.7031 4.89563 20.0879 4.89563 20.5625C4.89563 21.0371 4.51086 21.4219 4.03625 21.4219Z" fill="#4ABB82"/>
<path d="M20 5.45813C19.5254 5.45813 19.1406 5.07336 19.1406 4.59875V1.42188C19.1406 0.947266 19.5254 0.5625 20 0.5625C20.4746 0.5625 20.8594 0.947266 20.8594 1.42188V4.59875C20.8594 5.07336 20.4746 5.45813 20 5.45813Z" fill="#4ABB82"/>
<path d="M20 40.5625C19.5254 40.5625 19.1406 40.1777 19.1406 39.7031V36.5262C19.1406 36.0516 19.5254 35.6669 20 35.6669C20.4746 35.6669 20.8594 36.0516 20.8594 36.5262V39.7031C20.8594 40.1777 20.4746 40.5625 20 40.5625Z" fill="#4ABB82"/>
<path d="M31.288 10.1338C31.0681 10.1338 30.8482 10.0499 30.6804 9.88209C30.3448 9.54647 30.3448 9.00233 30.6804 8.6667L32.9268 6.4203C33.2624 6.08467 33.8065 6.08467 34.1422 6.4203C34.4777 6.75592 34.4777 7.30006 34.1422 7.63569L31.8958 9.88209C31.7279 10.0499 31.5079 10.1338 31.288 10.1338Z" fill="#4ABB82"/>
<path d="M6.46552 34.9563C6.2456 34.9563 6.02567 34.8724 5.85786 34.7046C5.52231 34.369 5.52231 33.8248 5.85786 33.4892L8.10427 31.2428C8.43989 30.9072 8.98403 30.9072 9.31966 31.2428C9.6552 31.5784 9.6552 32.1226 9.31966 32.4582L7.07317 34.7047C6.90536 34.8725 6.68544 34.9563 6.46552 34.9563Z" fill="#4ABB82"/>
<path d="M8.71194 10.1338C8.49202 10.1338 8.2721 10.0499 8.10428 9.88209L5.8578 7.63569C5.52225 7.30006 5.52225 6.75592 5.8578 6.4203C6.19343 6.08467 6.73757 6.08467 7.07319 6.4203L9.3196 8.6667C9.65514 9.00233 9.65514 9.54647 9.3196 9.88209C9.15178 10.0499 8.93186 10.1338 8.71194 10.1338Z" fill="#4ABB82"/>
<path d="M33.5344 34.9563C33.3145 34.9563 33.0946 34.8724 32.9268 34.7046L30.6804 32.4582C30.3448 32.1226 30.3448 31.5784 30.6804 31.2428C31.016 30.9072 31.5601 30.9072 31.8958 31.2428L34.1422 33.4892C34.4777 33.8248 34.4777 34.369 34.1422 34.7046C33.9744 34.8725 33.7544 34.9563 33.5344 34.9563Z" fill="#4ABB82"/>
</g>
<defs>
<clipPath id="clip0_1_1561">
<rect width="40" height="40" fill="white" transform="translate(0 0.5625)"/>
</clipPath>
</defs>
</svg>
