<svg width="40" height="41" viewBox="0 0 40 41" fill="none" xmlns="http://www.w3.org/2000/svg">
<path d="M39.1406 12.0469H0.859375V13.7656H39.1406V12.0469Z" fill="#4ABB82"/>
<path d="M39.1406 17.151H0.859375V18.8698H39.1406V17.151Z" fill="#4ABB82"/>
<path d="M31.4844 29.0781H28.9323C24.4116 28.906 24.4151 22.4256 28.9323 22.2552H31.4844C36.0051 22.4273 36.0017 28.9077 31.4844 29.0781ZM28.9323 23.974C26.6893 24.0594 26.6909 27.2749 28.9323 27.3594H31.4844C33.7275 27.274 33.7258 24.0585 31.4844 23.974H28.9323Z" fill="#4ABB82"/>
<path d="M9.79166 29.0781H5.96354C4.82455 29.0359 4.82541 27.4013 5.96354 27.3594H9.79166C10.9307 27.4016 10.9299 29.0362 9.79166 29.0781Z" fill="#1D1D35"/>
<path d="M13.6198 23.974H5.96354C4.82455 23.9317 4.82541 22.2971 5.96354 22.2552H13.6198C14.7588 22.2974 14.758 23.9321 13.6198 23.974Z" fill="#1D1D35"/>
<path d="M35.3125 34.1823H4.6875C2.10281 34.1823 0 32.0795 0 29.4948V11.6302C0 9.04556 2.10281 6.94275 4.6875 6.94275H35.3125C37.8972 6.94275 40 9.04556 40 11.6302V29.4949C40 32.0795 37.8972 34.1823 35.3125 34.1823ZM4.6875 8.66142C3.05055 8.66142 1.71875 9.99322 1.71875 11.6302V29.4948C1.71875 31.1317 3.05055 32.4635 4.6875 32.4635H35.3125C36.9495 32.4635 38.2812 31.1317 38.2812 29.4948V11.6302C38.2812 9.9933 36.9495 8.6615 35.3125 8.6615L4.6875 8.66142Z" fill="#1D1D35"/>
</svg>
