<svg width="20" height="21" viewBox="0 0 20 21" fill="none" xmlns="http://www.w3.org/2000/svg">
<g clip-path="url(#clip0_1_1350)">
<path d="M15.6002 1.62689H9.45946C9.07081 1.62689 8.69756 1.78162 8.42257 2.05661L0.429534 10.0482C-0.143178 10.6209 -0.143178 11.5493 0.429534 12.1227L6.57024 18.2634C7.14295 18.8361 8.07131 18.8361 8.64403 18.2634L16.6371 10.2718C16.912 9.99611 17.0668 9.62286 17.0668 9.23347V3.0935C17.0668 2.2832 16.4105 1.62689 15.6002 1.62689ZM13.0336 6.76003C12.4264 6.76003 11.9336 6.26725 11.9336 5.66007C11.9336 5.0529 12.4264 4.56012 13.0336 4.56012C13.6408 4.56012 14.1336 5.0529 14.1336 5.66007C14.1336 6.26725 13.6408 6.76003 13.0336 6.76003Z" fill="white"/>
<path d="M18.5334 3.09351L18.5326 9.91985C18.5326 10.2579 18.3984 10.5828 18.1587 10.8218L10.0366 18.9439L10.1612 19.0686C10.7339 19.6413 11.6623 19.6413 12.235 19.0686L19.5695 11.7355C19.8453 11.4605 20 11.0873 20 10.6986V4.56012C20 3.74981 19.3437 3.09351 18.5334 3.09351Z" fill="white"/>
</g>
<defs>
<clipPath id="clip0_1_1350">
<rect width="20" height="20" fill="white" transform="translate(0 0.5625)"/>
</clipPath>
</defs>
</svg>
