<svg width="20" height="20" viewBox="0 0 20 20" fill="none" xmlns="http://www.w3.org/2000/svg">
<path d="M17.6142 9.5992L15.3425 8.95004C14.3195 8.66163 13.3877 8.11551 12.6361 7.36395C11.8845 6.61239 11.3384 5.68053 11.05 4.65754L10.4008 2.38587C10.3682 2.30639 10.3127 2.23841 10.2413 2.19057C10.1699 2.14273 10.0859 2.11719 10 2.11719C9.91409 2.11719 9.8301 2.14273 9.75873 2.19057C9.68736 2.23841 9.63182 2.30639 9.59918 2.38587L8.95001 4.65754C8.6616 5.68053 8.11549 6.61239 7.36392 7.36395C6.61236 8.11551 5.6805 8.66163 4.65751 8.95004L2.38584 9.5992C2.29862 9.62396 2.22185 9.67649 2.16719 9.74883C2.11252 9.82117 2.08295 9.90937 2.08295 10C2.08295 10.0907 2.11252 10.1789 2.16719 10.2512C2.22185 10.3236 2.29862 10.3761 2.38584 10.4009L4.65751 11.05C5.6805 11.3384 6.61236 11.8846 7.36392 12.6361C8.11549 13.3877 8.6616 14.3195 8.95001 15.3425L9.59918 17.6142C9.62393 17.7014 9.67647 17.7782 9.74881 17.8329C9.82114 17.8875 9.90934 17.9171 10 17.9171C10.0907 17.9171 10.1789 17.8875 10.2512 17.8329C10.3236 17.7782 10.3761 17.7014 10.4008 17.6142L11.05 15.3425C11.3384 14.3195 11.8845 13.3877 12.6361 12.6361C13.3877 11.8846 14.3195 11.3384 15.3425 11.05L17.6142 10.4009C17.7014 10.3761 17.7782 10.3236 17.8328 10.2512C17.8875 10.1789 17.9171 10.0907 17.9171 10C17.9171 9.90937 17.8875 9.82117 17.8328 9.74883C17.7782 9.67649 17.7014 9.62396 17.6142 9.5992Z" fill="white"/>
</svg>
