<svg width="20" height="21" viewBox="0 0 20 21" fill="none" xmlns="http://www.w3.org/2000/svg">
<path fill-rule="evenodd" clip-rule="evenodd" d="M1.66663 10.5586C1.66663 5.95621 5.39758 2.22525 9.99996 2.22525C14.6023 2.22525 18.3333 5.95621 18.3333 10.5586C18.3333 15.1609 14.6023 18.8919 9.99996 18.8919C5.39758 18.8919 1.66663 15.1609 1.66663 10.5586ZM7.30836 12.5269C7.01475 12.1725 6.48942 12.1233 6.135 12.4168C5.78058 12.7105 5.73128 13.2358 6.02489 13.5903C7.09116 14.8773 8.52638 15.5586 9.99996 15.5586C11.4735 15.5586 12.9088 14.8773 13.975 13.5903C14.2686 13.2358 14.2194 12.7105 13.865 12.4168C13.5105 12.1233 12.9852 12.1725 12.6915 12.5269C11.9169 13.4621 10.9392 13.8919 9.99996 13.8919C9.06071 13.8919 8.08304 13.4621 7.30836 12.5269Z" fill="white"/>
</svg>
