<svg width="110" height="23" viewBox="0 0 110 23" fill="none" xmlns="http://www.w3.org/2000/svg">
<g id="Union">
<path d="M31.9067 12.2773C32.4664 11.7788 32.8446 11.0387 33.0564 10.0417C33.1169 9.69432 33.1623 9.31669 33.1623 8.92396C33.1623 8.48591 33.0715 8.01764 32.89 7.54938C32.6631 6.96028 32.3605 6.64307 31.9975 6.56755C31.4529 6.46181 30.9235 6.76392 30.4243 7.50407C30.0158 8.07807 29.7587 8.68227 29.6225 9.30159C29.5469 9.649 29.5166 10.0266 29.5166 10.4043C29.5166 10.8423 29.6074 11.3106 29.7889 11.7788C30.0158 12.3679 30.3184 12.6851 30.6814 12.7607C31.0596 12.8362 31.468 12.67 31.9067 12.2773Z" fill="#BBBCC3"/>
<path d="M23.572 10.0417C23.3602 11.0387 22.982 11.7788 22.4223 12.2773C21.9836 12.67 21.5752 12.8362 21.197 12.7607C20.834 12.6851 20.5314 12.3679 20.3045 11.7788C20.123 11.3106 20.0322 10.8423 20.0322 10.4043C20.0322 10.0266 20.0625 9.649 20.1381 9.30159C20.2743 8.68227 20.5314 8.07807 20.9398 7.50407C21.439 6.76392 21.9685 6.46181 22.5131 6.56755C22.8761 6.64307 23.1787 6.96028 23.4056 7.54938C23.5871 8.01764 23.6779 8.48591 23.6779 8.92396C23.6779 9.31669 23.6476 9.69432 23.572 10.0417Z" fill="#BBBCC3"/>
<path fill-rule="evenodd" clip-rule="evenodd" d="M4.02771 0.359375H34.1458C36.0518 0.359375 37.5948 1.9001 37.5948 3.80335V15.2833C37.5948 17.1865 36.0518 18.7273 34.1458 18.7273H23.345L24.8275 22.3525L18.3077 18.7273H4.04284C2.13683 18.7273 0.59386 17.1865 0.59386 15.2833V3.80335C0.578733 1.91521 2.1217 0.359375 4.02771 0.359375ZM2.43939 3.48607C2.65117 3.19907 2.96884 3.04802 3.3924 3.01781C4.16388 2.95739 4.60257 3.31991 4.70846 4.10538C5.1774 7.26236 5.69172 9.93598 6.23629 12.1262L9.54913 5.82737C9.85167 5.25337 10.2299 4.95127 10.6837 4.92106C11.3493 4.87574 11.7577 5.29869 11.9241 6.18989C12.3023 8.19888 12.7863 9.90577 13.3612 11.3559C13.7545 7.51915 14.4201 4.7549 15.3579 3.04802C15.5848 2.62507 15.9176 2.4136 16.3563 2.38339C16.7043 2.35318 17.0219 2.45892 17.3093 2.6855C17.5968 2.91207 17.748 3.19907 17.7783 3.54649C17.7934 3.81838 17.748 4.04496 17.627 4.27154C17.0371 5.35911 16.553 7.18684 16.1597 9.72451C15.7815 12.1867 15.6454 14.105 15.7361 15.4796C15.7664 15.8572 15.7059 16.1895 15.5546 16.4765C15.3731 16.8088 15.1008 16.9901 14.7529 17.0203C14.3596 17.0505 13.9511 16.8693 13.5578 16.4614C12.151 15.0264 11.0316 12.8815 10.2147 10.0266C9.23146 11.9601 8.50536 13.4102 8.03642 14.3769C7.14392 16.0838 6.38757 16.9599 5.75223 17.0052C5.3438 17.0354 4.99587 16.688 4.69333 15.9629C3.92185 13.9842 3.08986 10.1626 2.19736 4.49812C2.15197 4.10538 2.22761 3.75796 2.43939 3.48607ZM34.9624 5.85761C34.4178 4.90598 33.6161 4.33198 32.5421 4.1054C32.2546 4.04498 31.9824 4.01477 31.7252 4.01477C30.273 4.01477 29.0931 4.77003 28.1703 6.28055C27.3837 7.56449 26.9904 8.98438 26.9904 10.5402C26.9904 11.7033 27.2324 12.7002 27.7165 13.531C28.2611 14.4827 29.0628 15.0567 30.1368 15.2832C30.4243 15.3437 30.6966 15.3739 30.9537 15.3739C32.421 15.3739 33.601 14.6186 34.5086 13.1081C35.2952 11.809 35.6885 10.3892 35.6885 8.83332C35.6885 7.65512 35.4465 6.67329 34.9624 5.85761ZM23.0576 4.1054C24.1165 4.33198 24.9334 4.90598 25.478 5.85761C25.9621 6.67329 26.2041 7.65512 26.2041 8.83332C26.2041 10.3892 25.8108 11.809 25.0242 13.1081C24.1165 14.6186 22.9366 15.3739 21.4693 15.3739C21.2121 15.3739 20.9398 15.3437 20.6524 15.2832C19.5784 15.0567 18.7767 14.4827 18.2321 13.531C17.748 12.7002 17.506 11.7033 17.506 10.5402C17.506 8.98438 17.8993 7.56449 18.6859 6.28055C19.6087 4.77003 20.7886 4.01477 22.2408 4.01477C22.4979 4.01477 22.7702 4.04498 23.0576 4.1054Z" fill="#BBBCC3"/>
<path d="M39.9092 9.52836C39.9092 7.98763 40.4084 6.7188 41.4219 5.72186C42.4354 4.72492 43.7061 4.22644 45.2491 4.24155C45.839 4.24155 46.3987 4.30197 46.8979 4.43792V6.88496C46.3534 6.7339 45.8542 6.65838 45.3852 6.65838C44.6591 6.65838 44.0692 6.93027 43.5851 7.48916C43.1162 8.03295 42.8741 8.74289 42.8741 9.60389C42.8741 10.5253 43.1162 11.2504 43.6002 11.7941C44.0843 12.3228 44.7196 12.5947 45.5214 12.5947C45.9147 12.5947 46.3685 12.5192 46.8979 12.3681V14.8152C46.3231 14.9813 45.7937 15.0569 45.3247 15.0569C43.7061 15.0569 42.4052 14.5433 41.4068 13.5312C40.4084 12.5192 39.9092 11.1748 39.9092 9.52836Z" fill="#BBBCC3"/>
<path fill-rule="evenodd" clip-rule="evenodd" d="M48.6527 5.61612C49.4393 4.69471 50.5284 4.22644 51.9201 4.22644C53.4026 4.22644 54.5371 4.69471 55.3389 5.61612C56.1255 6.55264 56.5188 7.8819 56.5188 9.60389C56.5188 11.3259 56.1255 12.6702 55.354 13.6219C54.5825 14.5735 53.4782 15.0569 52.0412 15.0569C50.5587 15.0569 49.4242 14.5735 48.6527 13.6219C47.8812 12.6702 47.4879 11.2957 47.4879 9.49815C47.4879 7.83658 47.8661 6.53754 48.6527 5.61612ZM51.9201 12.7156C52.4345 12.7156 52.8429 12.5041 53.1152 12.0811C53.3875 11.6582 53.5387 10.8123 53.5539 9.57368C53.5539 7.56469 53.0093 6.56775 51.9504 6.56775C50.9369 6.56775 50.4377 7.54958 50.4377 9.52836C50.4377 10.8123 50.5587 11.6582 50.8159 12.0811C51.073 12.5041 51.4361 12.7156 51.9201 12.7156Z" fill="#BBBCC3"/>
<path d="M63.447 6.82454L63.9916 4.51345H67.5918L68.9835 14.8001H66.2304L65.4892 7.73085L63.7647 14.8001H61.8889L60.0888 7.71574L59.3778 14.8001H56.7457L58.0617 4.51345H61.5712C62.0704 6.73391 62.4637 8.63716 62.7512 10.2383L63.0537 8.63716C63.1747 8.01785 63.3109 7.41364 63.447 6.82454Z" fill="#BBBCC3"/>
<path d="M76.0479 6.82454L76.5925 4.51345H80.1776L81.5693 14.8001H78.8161L78.0749 7.73085L76.3655 14.8001H74.4898L72.6897 7.71574L71.9787 14.8001H69.3466L70.6626 4.51345H74.1721C74.6713 6.73391 75.0646 8.63716 75.352 10.2383L75.6546 8.63716C75.7756 8.01785 75.9117 7.41364 76.0479 6.82454Z" fill="#BBBCC3"/>
<path d="M87.6201 10.7368H85.1544V12.6249H88.0134V14.8152H82.371V4.52855H87.9983V6.7188H85.1544V8.60695H87.6201V10.7368Z" fill="#BBBCC3"/>
<path fill-rule="evenodd" clip-rule="evenodd" d="M96.2879 7.65532C96.2879 8.15379 96.1367 8.63716 95.8493 9.10542C95.5618 9.57368 95.1383 9.9211 94.6088 10.1628L96.8325 14.8001H93.8979L91.6439 10.1175H91.5985V14.8001H88.8152V4.51345H92.0524C93.3533 4.51345 94.3971 4.80044 95.1534 5.35933C95.9098 5.91822 96.2879 6.68859 96.2879 7.65532ZM91.5834 6.49222V8.93926C92.8087 8.92416 93.4289 8.56163 93.4289 7.85169C93.4289 7.36832 93.2928 7.03601 93.0054 6.82454C92.718 6.61306 92.249 6.50733 91.5834 6.49222Z" fill="#BBBCC3"/>
<path d="M96.409 9.52836C96.409 7.98763 96.9082 6.7188 97.9217 5.72186C98.9352 4.72492 100.221 4.22644 101.749 4.24155C102.339 4.24155 102.898 4.30197 103.398 4.43792V6.88496C102.853 6.7339 102.354 6.65838 101.885 6.65838C101.159 6.65838 100.569 6.93027 100.085 7.48916C99.6159 8.03295 99.3739 8.74289 99.3739 9.60389C99.3739 10.5253 99.6159 11.2504 100.1 11.7941C100.584 12.3228 101.219 12.5947 102.021 12.5947C102.414 12.5947 102.868 12.5192 103.398 12.3681V14.8152C102.823 14.9813 102.293 15.0569 101.824 15.0569C100.206 15.0569 98.9049 14.5433 97.9065 13.5312C96.9082 12.5192 96.409 11.1748 96.409 9.52836Z" fill="#BBBCC3"/>
<path d="M106.953 10.7217V12.6098H109.827V14.8001H104.184V4.51345H109.812V6.7037H106.953V8.59184H109.418V10.7217H106.953Z" fill="#BBBCC3"/>
</g>
</svg>
